<svg version="1.1" xmlns="http://www.w3.org/2000/svg" xmlns:xlink="http://www.w3.org/1999/xlink" width="154" height="34" viewBox="0,0,154,34"><g transform="translate(-127,-127)"><g data-paper-data="{&quot;isPaintingLayer&quot;:true}" fill="#90f5ff" fill-rule="nonzero" stroke-linecap="butt" stroke-linejoin="miter" stroke-miterlimit="10" stroke-dasharray="" stroke-dashoffset="0" style="mix-blend-mode: normal"><path d="M128,144c0,-8.83656 7.16344,-16 16,-16c8.83656,0 16,7.16344 16,16c0,8.83656 -7.16344,16 -16,16c-8.83656,0 -16,-7.16344 -16,-16z" stroke="#000000" stroke-width="2"/><path d="M248,144c0,-8.83656 7.16344,-16 16,-16c8.83655,0 16,7.16344 16,16c0,8.83656 -7.16345,16 -16,16c-8.83656,0 -16,-7.16344 -16,-16z" stroke="#000000" stroke-width="2"/><path d="M144.83334,160v-32h117.33333v32z" stroke="#000000" stroke-width="2"/><path d="M143,159v-30h9v30z" stroke="none" stroke-width="0"/><path d="M255,159v-30h9v30z" stroke="none" stroke-width="0"/></g></g></svg>